<svg width="1600" height="1000" viewBox="0 0 1600 1000" fill="none" xmlns="http://www.w3.org/2000/svg">
  <defs>
    <linearGradient id="bg" x1="0" y1="0" x2="1" y2="1">
      <stop offset="0" stop-color="#0B1220"/>
      <stop offset="0.6" stop-color="#111827"/>
      <stop offset="1" stop-color="#0B1220"/>
    </linearGradient>
    <linearGradient id="glow" x1="0" y1="0" x2="1" y2="1">
      <stop offset="0" stop-color="#F59E0B"/>
      <stop offset="1" stop-color="#38BDF8"/>
    </linearGradient>
    <filter id="b" x="-40%" y="-40%" width="180%" height="180%">
      <feGaussianBlur stdDeviation="26" />
    </filter>
  </defs>

  <rect width="1600" height="1000" fill="url(#bg)"/>
  <circle cx="520" cy="340" r="260" fill="url(#glow)" opacity="0.25" filter="url(#b)"/>
  <circle cx="1180" cy="520" r="220" fill="#38BDF8" opacity="0.14" filter="url(#b)"/>

  <g opacity="0.92">
    <path d="M340 860V260C340 220 372 188 412 188H966C1006 188 1038 220 1038 260V860H340Z" fill="white" opacity="0.10"/>
    <path d="M1100 860V360C1100 320 1132 288 1172 288H1290C1330 288 1362 320 1362 360V860H1100Z" fill="white" opacity="0.08"/>

    <g opacity="0.85">
      <rect x="410" y="270" width="120" height="88" rx="18" fill="white" opacity="0.14"/>
      <rect x="560" y="270" width="120" height="88" rx="18" fill="white" opacity="0.10"/>
      <rect x="710" y="270" width="120" height="88" rx="18" fill="white" opacity="0.12"/>
      <rect x="860" y="270" width="120" height="88" rx="18" fill="white" opacity="0.10"/>

      <rect x="410" y="390" width="120" height="88" rx="18" fill="white" opacity="0.10"/>
      <rect x="560" y="390" width="120" height="88" rx="18" fill="white" opacity="0.14"/>
      <rect x="710" y="390" width="120" height="88" rx="18" fill="white" opacity="0.10"/>
      <rect x="860" y="390" width="120" height="88" rx="18" fill="white" opacity="0.12"/>

      <rect x="410" y="510" width="120" height="88" rx="18" fill="white" opacity="0.12"/>
      <rect x="560" y="510" width="120" height="88" rx="18" fill="white" opacity="0.10"/>
      <rect x="710" y="510" width="120" height="88" rx="18" fill="white" opacity="0.14"/>
      <rect x="860" y="510" width="120" height="88" rx="18" fill="white" opacity="0.10"/>
    </g>

    <path d="M640 860V720C640 690 664 666 694 666H784C814 666 838 690 838 720V860H640Z" fill="white" opacity="0.16"/>
  </g>

  <path d="M260 820C520 700 860 670 1320 720" stroke="white" opacity="0.12" stroke-width="2"/>
</svg>

