<svg width="1600" height="1000" viewBox="0 0 1600 1000" fill="none" xmlns="http://www.w3.org/2000/svg">
  <defs>
    <linearGradient id="bg" x1="0" y1="0" x2="1" y2="1">
      <stop offset="0" stop-color="#0B1220"/>
      <stop offset="0.55" stop-color="#111827"/>
      <stop offset="1" stop-color="#0B1220"/>
    </linearGradient>
    <filter id="b" x="-40%" y="-40%" width="180%" height="180%">
      <feGaussianBlur stdDeviation="30" />
    </filter>
  </defs>

  <rect width="1600" height="1000" fill="url(#bg)"/>
  <circle cx="560" cy="350" r="280" fill="#10B981" opacity="0.14" filter="url(#b)"/>
  <circle cx="1180" cy="600" r="260" fill="#F59E0B" opacity="0.16" filter="url(#b)"/>

  <g opacity="0.92">
    <path d="M360 860V240C360 200 392 168 432 168H1010C1050 168 1082 200 1082 240V860H360Z" fill="white" opacity="0.10"/>
    <path d="M1120 860V360C1120 320 1152 288 1192 288H1310C1350 288 1382 320 1382 360V860H1120Z" fill="white" opacity="0.08"/>

    <g opacity="0.85">
      <rect x="420" y="260" width="120" height="88" rx="18" fill="white" opacity="0.12"/>
      <rect x="570" y="260" width="120" height="88" rx="18" fill="white" opacity="0.10"/>
      <rect x="720" y="260" width="120" height="88" rx="18" fill="white" opacity="0.14"/>
      <rect x="870" y="260" width="120" height="88" rx="18" fill="white" opacity="0.10"/>

      <rect x="420" y="380" width="120" height="88" rx="18" fill="white" opacity="0.10"/>
      <rect x="570" y="380" width="120" height="88" rx="18" fill="white" opacity="0.14"/>
      <rect x="720" y="380" width="120" height="88" rx="18" fill="white" opacity="0.10"/>
      <rect x="870" y="380" width="120" height="88" rx="18" fill="white" opacity="0.12"/>

      <rect x="420" y="500" width="120" height="88" rx="18" fill="white" opacity="0.12"/>
      <rect x="570" y="500" width="120" height="88" rx="18" fill="white" opacity="0.10"/>
      <rect x="720" y="500" width="120" height="88" rx="18" fill="white" opacity="0.14"/>
      <rect x="870" y="500" width="120" height="88" rx="18" fill="white" opacity="0.10"/>
    </g>

    <path d="M700 860V700C700 670 724 646 754 646H848C878 646 902 670 902 700V860H700Z" fill="white" opacity="0.16"/>
  </g>

  <path d="M300 820C560 680 900 650 1360 720" stroke="white" opacity="0.12" stroke-width="2"/>
</svg>

